%TF.GenerationSoftware,KiCad,Pcbnew,10.0.4*%
%TF.CreationDate,2026-07-07T14:04:39+02:00*%
%TF.ProjectId,voltstrip_pcb,766f6c74-7374-4726-9970-5f7063622e6b,rev?*%
%TF.SameCoordinates,Original*%
%TF.FileFunction,Legend,Top*%
%TF.FilePolarity,Positive*%
%FSLAX46Y46*%
G04 Gerber Fmt 4.6, Leading zero omitted, Abs format (unit mm)*
G04 Created by KiCad (PCBNEW 10.0.4) date 2026-07-07 14:04:39*
%MOMM*%
%LPD*%
G01*
G04 APERTURE LIST*
%ADD10C,0.100000*%
%ADD11C,0.150000*%
%ADD12C,0.120000*%
%ADD13R,1.600000X1.600000*%
%ADD14O,1.600000X1.600000*%
%ADD15R,1.700000X1.700000*%
%ADD16O,1.700000X1.700000*%
%ADD17C,1.700000*%
%ADD18C,4.000000*%
%ADD19C,2.200000*%
%ADD20R,1.500000X0.900000*%
%ADD21R,2.000000X2.000000*%
%ADD22C,2.000000*%
%ADD23R,3.200000X2.000000*%
%ADD24C,3.200000*%
%ADD25R,3.500000X1.700000*%
%ADD26O,3.600000X1.700000*%
%ADD27O,3.700000X1.700000*%
G04 APERTURE END LIST*
D10*
X149256750Y-75723750D02*
X188944250Y-75723750D01*
X188944250Y-88423750D01*
X149256750Y-88423750D01*
X149256750Y-75723750D01*
D11*
X141574819Y-120238094D02*
X140574819Y-120238094D01*
X140574819Y-120238094D02*
X140574819Y-119999999D01*
X140574819Y-119999999D02*
X140622438Y-119857142D01*
X140622438Y-119857142D02*
X140717676Y-119761904D01*
X140717676Y-119761904D02*
X140812914Y-119714285D01*
X140812914Y-119714285D02*
X141003390Y-119666666D01*
X141003390Y-119666666D02*
X141146247Y-119666666D01*
X141146247Y-119666666D02*
X141336723Y-119714285D01*
X141336723Y-119714285D02*
X141431961Y-119761904D01*
X141431961Y-119761904D02*
X141527200Y-119857142D01*
X141527200Y-119857142D02*
X141574819Y-119999999D01*
X141574819Y-119999999D02*
X141574819Y-120238094D01*
X140908152Y-118809523D02*
X141574819Y-118809523D01*
X140527200Y-119047618D02*
X141241485Y-119285713D01*
X141241485Y-119285713D02*
X141241485Y-118666666D01*
X141254819Y-115951904D02*
X140254819Y-115951904D01*
X141254819Y-115380476D02*
X140683390Y-115809047D01*
X140254819Y-115380476D02*
X140826247Y-115951904D01*
X144749819Y-120238094D02*
X143749819Y-120238094D01*
X143749819Y-120238094D02*
X143749819Y-119999999D01*
X143749819Y-119999999D02*
X143797438Y-119857142D01*
X143797438Y-119857142D02*
X143892676Y-119761904D01*
X143892676Y-119761904D02*
X143987914Y-119714285D01*
X143987914Y-119714285D02*
X144178390Y-119666666D01*
X144178390Y-119666666D02*
X144321247Y-119666666D01*
X144321247Y-119666666D02*
X144511723Y-119714285D01*
X144511723Y-119714285D02*
X144606961Y-119761904D01*
X144606961Y-119761904D02*
X144702200Y-119857142D01*
X144702200Y-119857142D02*
X144749819Y-119999999D01*
X144749819Y-119999999D02*
X144749819Y-120238094D01*
X144749819Y-118714285D02*
X144749819Y-119285713D01*
X144749819Y-118999999D02*
X143749819Y-118999999D01*
X143749819Y-118999999D02*
X143892676Y-119095237D01*
X143892676Y-119095237D02*
X143987914Y-119190475D01*
X143987914Y-119190475D02*
X144035533Y-119285713D01*
X144429819Y-115951904D02*
X143429819Y-115951904D01*
X144429819Y-115380476D02*
X143858390Y-115809047D01*
X143429819Y-115380476D02*
X144001247Y-115951904D01*
X151177666Y-75356819D02*
X151177666Y-76071104D01*
X151177666Y-76071104D02*
X151130047Y-76213961D01*
X151130047Y-76213961D02*
X151034809Y-76309200D01*
X151034809Y-76309200D02*
X150891952Y-76356819D01*
X150891952Y-76356819D02*
X150796714Y-76356819D01*
X152177666Y-76356819D02*
X151606238Y-76356819D01*
X151891952Y-76356819D02*
X151891952Y-75356819D01*
X151891952Y-75356819D02*
X151796714Y-75499676D01*
X151796714Y-75499676D02*
X151701476Y-75594914D01*
X151701476Y-75594914D02*
X151606238Y-75642533D01*
X178166667Y-91073200D02*
X178309524Y-91120819D01*
X178309524Y-91120819D02*
X178547619Y-91120819D01*
X178547619Y-91120819D02*
X178642857Y-91073200D01*
X178642857Y-91073200D02*
X178690476Y-91025580D01*
X178690476Y-91025580D02*
X178738095Y-90930342D01*
X178738095Y-90930342D02*
X178738095Y-90835104D01*
X178738095Y-90835104D02*
X178690476Y-90739866D01*
X178690476Y-90739866D02*
X178642857Y-90692247D01*
X178642857Y-90692247D02*
X178547619Y-90644628D01*
X178547619Y-90644628D02*
X178357143Y-90597009D01*
X178357143Y-90597009D02*
X178261905Y-90549390D01*
X178261905Y-90549390D02*
X178214286Y-90501771D01*
X178214286Y-90501771D02*
X178166667Y-90406533D01*
X178166667Y-90406533D02*
X178166667Y-90311295D01*
X178166667Y-90311295D02*
X178214286Y-90216057D01*
X178214286Y-90216057D02*
X178261905Y-90168438D01*
X178261905Y-90168438D02*
X178357143Y-90120819D01*
X178357143Y-90120819D02*
X178595238Y-90120819D01*
X178595238Y-90120819D02*
X178738095Y-90168438D01*
X179071429Y-90120819D02*
X179309524Y-91120819D01*
X179309524Y-91120819D02*
X179500000Y-90406533D01*
X179500000Y-90406533D02*
X179690476Y-91120819D01*
X179690476Y-91120819D02*
X179928572Y-90120819D01*
X180738095Y-90454152D02*
X180738095Y-91120819D01*
X180500000Y-90073200D02*
X180261905Y-90787485D01*
X180261905Y-90787485D02*
X180880952Y-90787485D01*
X178166667Y-111533200D02*
X178309524Y-111580819D01*
X178309524Y-111580819D02*
X178547619Y-111580819D01*
X178547619Y-111580819D02*
X178642857Y-111533200D01*
X178642857Y-111533200D02*
X178690476Y-111485580D01*
X178690476Y-111485580D02*
X178738095Y-111390342D01*
X178738095Y-111390342D02*
X178738095Y-111295104D01*
X178738095Y-111295104D02*
X178690476Y-111199866D01*
X178690476Y-111199866D02*
X178642857Y-111152247D01*
X178642857Y-111152247D02*
X178547619Y-111104628D01*
X178547619Y-111104628D02*
X178357143Y-111057009D01*
X178357143Y-111057009D02*
X178261905Y-111009390D01*
X178261905Y-111009390D02*
X178214286Y-110961771D01*
X178214286Y-110961771D02*
X178166667Y-110866533D01*
X178166667Y-110866533D02*
X178166667Y-110771295D01*
X178166667Y-110771295D02*
X178214286Y-110676057D01*
X178214286Y-110676057D02*
X178261905Y-110628438D01*
X178261905Y-110628438D02*
X178357143Y-110580819D01*
X178357143Y-110580819D02*
X178595238Y-110580819D01*
X178595238Y-110580819D02*
X178738095Y-110628438D01*
X179071429Y-110580819D02*
X179309524Y-111580819D01*
X179309524Y-111580819D02*
X179500000Y-110866533D01*
X179500000Y-110866533D02*
X179690476Y-111580819D01*
X179690476Y-111580819D02*
X179928572Y-110580819D01*
X180785714Y-110580819D02*
X180309524Y-110580819D01*
X180309524Y-110580819D02*
X180261905Y-111057009D01*
X180261905Y-111057009D02*
X180309524Y-111009390D01*
X180309524Y-111009390D02*
X180404762Y-110961771D01*
X180404762Y-110961771D02*
X180642857Y-110961771D01*
X180642857Y-110961771D02*
X180738095Y-111009390D01*
X180738095Y-111009390D02*
X180785714Y-111057009D01*
X180785714Y-111057009D02*
X180833333Y-111152247D01*
X180833333Y-111152247D02*
X180833333Y-111390342D01*
X180833333Y-111390342D02*
X180785714Y-111485580D01*
X180785714Y-111485580D02*
X180738095Y-111533200D01*
X180738095Y-111533200D02*
X180642857Y-111580819D01*
X180642857Y-111580819D02*
X180404762Y-111580819D01*
X180404762Y-111580819D02*
X180309524Y-111533200D01*
X180309524Y-111533200D02*
X180261905Y-111485580D01*
X142261905Y-95518819D02*
X142261905Y-94518819D01*
X142261905Y-94518819D02*
X142500000Y-94518819D01*
X142500000Y-94518819D02*
X142642857Y-94566438D01*
X142642857Y-94566438D02*
X142738095Y-94661676D01*
X142738095Y-94661676D02*
X142785714Y-94756914D01*
X142785714Y-94756914D02*
X142833333Y-94947390D01*
X142833333Y-94947390D02*
X142833333Y-95090247D01*
X142833333Y-95090247D02*
X142785714Y-95280723D01*
X142785714Y-95280723D02*
X142738095Y-95375961D01*
X142738095Y-95375961D02*
X142642857Y-95471200D01*
X142642857Y-95471200D02*
X142500000Y-95518819D01*
X142500000Y-95518819D02*
X142261905Y-95518819D01*
X143690476Y-94518819D02*
X143500000Y-94518819D01*
X143500000Y-94518819D02*
X143404762Y-94566438D01*
X143404762Y-94566438D02*
X143357143Y-94614057D01*
X143357143Y-94614057D02*
X143261905Y-94756914D01*
X143261905Y-94756914D02*
X143214286Y-94947390D01*
X143214286Y-94947390D02*
X143214286Y-95328342D01*
X143214286Y-95328342D02*
X143261905Y-95423580D01*
X143261905Y-95423580D02*
X143309524Y-95471200D01*
X143309524Y-95471200D02*
X143404762Y-95518819D01*
X143404762Y-95518819D02*
X143595238Y-95518819D01*
X143595238Y-95518819D02*
X143690476Y-95471200D01*
X143690476Y-95471200D02*
X143738095Y-95423580D01*
X143738095Y-95423580D02*
X143785714Y-95328342D01*
X143785714Y-95328342D02*
X143785714Y-95090247D01*
X143785714Y-95090247D02*
X143738095Y-94995009D01*
X143738095Y-94995009D02*
X143690476Y-94947390D01*
X143690476Y-94947390D02*
X143595238Y-94899771D01*
X143595238Y-94899771D02*
X143404762Y-94899771D01*
X143404762Y-94899771D02*
X143309524Y-94947390D01*
X143309524Y-94947390D02*
X143261905Y-94995009D01*
X143261905Y-94995009D02*
X143214286Y-95090247D01*
X147435714Y-101054819D02*
X146864286Y-101054819D01*
X147150000Y-101054819D02*
X147150000Y-100054819D01*
X147150000Y-100054819D02*
X147054762Y-100197676D01*
X147054762Y-100197676D02*
X146959524Y-100292914D01*
X146959524Y-100292914D02*
X146864286Y-100340533D01*
X138399819Y-120238094D02*
X137399819Y-120238094D01*
X137399819Y-120238094D02*
X137399819Y-119999999D01*
X137399819Y-119999999D02*
X137447438Y-119857142D01*
X137447438Y-119857142D02*
X137542676Y-119761904D01*
X137542676Y-119761904D02*
X137637914Y-119714285D01*
X137637914Y-119714285D02*
X137828390Y-119666666D01*
X137828390Y-119666666D02*
X137971247Y-119666666D01*
X137971247Y-119666666D02*
X138161723Y-119714285D01*
X138161723Y-119714285D02*
X138256961Y-119761904D01*
X138256961Y-119761904D02*
X138352200Y-119857142D01*
X138352200Y-119857142D02*
X138399819Y-119999999D01*
X138399819Y-119999999D02*
X138399819Y-120238094D01*
X137495057Y-119285713D02*
X137447438Y-119238094D01*
X137447438Y-119238094D02*
X137399819Y-119142856D01*
X137399819Y-119142856D02*
X137399819Y-118904761D01*
X137399819Y-118904761D02*
X137447438Y-118809523D01*
X137447438Y-118809523D02*
X137495057Y-118761904D01*
X137495057Y-118761904D02*
X137590295Y-118714285D01*
X137590295Y-118714285D02*
X137685533Y-118714285D01*
X137685533Y-118714285D02*
X137828390Y-118761904D01*
X137828390Y-118761904D02*
X138399819Y-119333332D01*
X138399819Y-119333332D02*
X138399819Y-118714285D01*
X138079819Y-115951904D02*
X137079819Y-115951904D01*
X138079819Y-115380476D02*
X137508390Y-115809047D01*
X137079819Y-115380476D02*
X137651247Y-115951904D01*
X135374667Y-75854450D02*
X135517524Y-75902069D01*
X135517524Y-75902069D02*
X135755619Y-75902069D01*
X135755619Y-75902069D02*
X135850857Y-75854450D01*
X135850857Y-75854450D02*
X135898476Y-75806830D01*
X135898476Y-75806830D02*
X135946095Y-75711592D01*
X135946095Y-75711592D02*
X135946095Y-75616354D01*
X135946095Y-75616354D02*
X135898476Y-75521116D01*
X135898476Y-75521116D02*
X135850857Y-75473497D01*
X135850857Y-75473497D02*
X135755619Y-75425878D01*
X135755619Y-75425878D02*
X135565143Y-75378259D01*
X135565143Y-75378259D02*
X135469905Y-75330640D01*
X135469905Y-75330640D02*
X135422286Y-75283021D01*
X135422286Y-75283021D02*
X135374667Y-75187783D01*
X135374667Y-75187783D02*
X135374667Y-75092545D01*
X135374667Y-75092545D02*
X135422286Y-74997307D01*
X135422286Y-74997307D02*
X135469905Y-74949688D01*
X135469905Y-74949688D02*
X135565143Y-74902069D01*
X135565143Y-74902069D02*
X135803238Y-74902069D01*
X135803238Y-74902069D02*
X135946095Y-74949688D01*
X136279429Y-74902069D02*
X136517524Y-75902069D01*
X136517524Y-75902069D02*
X136708000Y-75187783D01*
X136708000Y-75187783D02*
X136898476Y-75902069D01*
X136898476Y-75902069D02*
X137136572Y-74902069D01*
X138041333Y-75902069D02*
X137469905Y-75902069D01*
X137755619Y-75902069D02*
X137755619Y-74902069D01*
X137755619Y-74902069D02*
X137660381Y-75044926D01*
X137660381Y-75044926D02*
X137565143Y-75140164D01*
X137565143Y-75140164D02*
X137469905Y-75187783D01*
X147924819Y-120238094D02*
X146924819Y-120238094D01*
X146924819Y-120238094D02*
X146924819Y-119999999D01*
X146924819Y-119999999D02*
X146972438Y-119857142D01*
X146972438Y-119857142D02*
X147067676Y-119761904D01*
X147067676Y-119761904D02*
X147162914Y-119714285D01*
X147162914Y-119714285D02*
X147353390Y-119666666D01*
X147353390Y-119666666D02*
X147496247Y-119666666D01*
X147496247Y-119666666D02*
X147686723Y-119714285D01*
X147686723Y-119714285D02*
X147781961Y-119761904D01*
X147781961Y-119761904D02*
X147877200Y-119857142D01*
X147877200Y-119857142D02*
X147924819Y-119999999D01*
X147924819Y-119999999D02*
X147924819Y-120238094D01*
X146924819Y-119333332D02*
X146924819Y-118714285D01*
X146924819Y-118714285D02*
X147305771Y-119047618D01*
X147305771Y-119047618D02*
X147305771Y-118904761D01*
X147305771Y-118904761D02*
X147353390Y-118809523D01*
X147353390Y-118809523D02*
X147401009Y-118761904D01*
X147401009Y-118761904D02*
X147496247Y-118714285D01*
X147496247Y-118714285D02*
X147734342Y-118714285D01*
X147734342Y-118714285D02*
X147829580Y-118761904D01*
X147829580Y-118761904D02*
X147877200Y-118809523D01*
X147877200Y-118809523D02*
X147924819Y-118904761D01*
X147924819Y-118904761D02*
X147924819Y-119190475D01*
X147924819Y-119190475D02*
X147877200Y-119285713D01*
X147877200Y-119285713D02*
X147829580Y-119333332D01*
X147604819Y-115951904D02*
X146604819Y-115951904D01*
X147604819Y-115380476D02*
X147033390Y-115809047D01*
X146604819Y-115380476D02*
X147176247Y-115951904D01*
X188121819Y-82653094D02*
X187121819Y-82653094D01*
X187121819Y-82653094D02*
X187121819Y-82414999D01*
X187121819Y-82414999D02*
X187169438Y-82272142D01*
X187169438Y-82272142D02*
X187264676Y-82176904D01*
X187264676Y-82176904D02*
X187359914Y-82129285D01*
X187359914Y-82129285D02*
X187550390Y-82081666D01*
X187550390Y-82081666D02*
X187693247Y-82081666D01*
X187693247Y-82081666D02*
X187883723Y-82129285D01*
X187883723Y-82129285D02*
X187978961Y-82176904D01*
X187978961Y-82176904D02*
X188074200Y-82272142D01*
X188074200Y-82272142D02*
X188121819Y-82414999D01*
X188121819Y-82414999D02*
X188121819Y-82653094D01*
X188121819Y-81605475D02*
X188121819Y-81414999D01*
X188121819Y-81414999D02*
X188074200Y-81319761D01*
X188074200Y-81319761D02*
X188026580Y-81272142D01*
X188026580Y-81272142D02*
X187883723Y-81176904D01*
X187883723Y-81176904D02*
X187693247Y-81129285D01*
X187693247Y-81129285D02*
X187312295Y-81129285D01*
X187312295Y-81129285D02*
X187217057Y-81176904D01*
X187217057Y-81176904D02*
X187169438Y-81224523D01*
X187169438Y-81224523D02*
X187121819Y-81319761D01*
X187121819Y-81319761D02*
X187121819Y-81510237D01*
X187121819Y-81510237D02*
X187169438Y-81605475D01*
X187169438Y-81605475D02*
X187217057Y-81653094D01*
X187217057Y-81653094D02*
X187312295Y-81700713D01*
X187312295Y-81700713D02*
X187550390Y-81700713D01*
X187550390Y-81700713D02*
X187645628Y-81653094D01*
X187645628Y-81653094D02*
X187693247Y-81605475D01*
X187693247Y-81605475D02*
X187740866Y-81510237D01*
X187740866Y-81510237D02*
X187740866Y-81319761D01*
X187740866Y-81319761D02*
X187693247Y-81224523D01*
X187693247Y-81224523D02*
X187645628Y-81176904D01*
X187645628Y-81176904D02*
X187550390Y-81129285D01*
X187801819Y-78366904D02*
X186801819Y-78366904D01*
X187801819Y-77795476D02*
X187230390Y-78224047D01*
X186801819Y-77795476D02*
X187373247Y-78366904D01*
X157666667Y-111533200D02*
X157809524Y-111580819D01*
X157809524Y-111580819D02*
X158047619Y-111580819D01*
X158047619Y-111580819D02*
X158142857Y-111533200D01*
X158142857Y-111533200D02*
X158190476Y-111485580D01*
X158190476Y-111485580D02*
X158238095Y-111390342D01*
X158238095Y-111390342D02*
X158238095Y-111295104D01*
X158238095Y-111295104D02*
X158190476Y-111199866D01*
X158190476Y-111199866D02*
X158142857Y-111152247D01*
X158142857Y-111152247D02*
X158047619Y-111104628D01*
X158047619Y-111104628D02*
X157857143Y-111057009D01*
X157857143Y-111057009D02*
X157761905Y-111009390D01*
X157761905Y-111009390D02*
X157714286Y-110961771D01*
X157714286Y-110961771D02*
X157666667Y-110866533D01*
X157666667Y-110866533D02*
X157666667Y-110771295D01*
X157666667Y-110771295D02*
X157714286Y-110676057D01*
X157714286Y-110676057D02*
X157761905Y-110628438D01*
X157761905Y-110628438D02*
X157857143Y-110580819D01*
X157857143Y-110580819D02*
X158095238Y-110580819D01*
X158095238Y-110580819D02*
X158238095Y-110628438D01*
X158571429Y-110580819D02*
X158809524Y-111580819D01*
X158809524Y-111580819D02*
X159000000Y-110866533D01*
X159000000Y-110866533D02*
X159190476Y-111580819D01*
X159190476Y-111580819D02*
X159428572Y-110580819D01*
X159714286Y-110580819D02*
X160333333Y-110580819D01*
X160333333Y-110580819D02*
X160000000Y-110961771D01*
X160000000Y-110961771D02*
X160142857Y-110961771D01*
X160142857Y-110961771D02*
X160238095Y-111009390D01*
X160238095Y-111009390D02*
X160285714Y-111057009D01*
X160285714Y-111057009D02*
X160333333Y-111152247D01*
X160333333Y-111152247D02*
X160333333Y-111390342D01*
X160333333Y-111390342D02*
X160285714Y-111485580D01*
X160285714Y-111485580D02*
X160238095Y-111533200D01*
X160238095Y-111533200D02*
X160142857Y-111580819D01*
X160142857Y-111580819D02*
X159857143Y-111580819D01*
X159857143Y-111580819D02*
X159761905Y-111533200D01*
X159761905Y-111533200D02*
X159714286Y-111485580D01*
X157666667Y-91033200D02*
X157809524Y-91080819D01*
X157809524Y-91080819D02*
X158047619Y-91080819D01*
X158047619Y-91080819D02*
X158142857Y-91033200D01*
X158142857Y-91033200D02*
X158190476Y-90985580D01*
X158190476Y-90985580D02*
X158238095Y-90890342D01*
X158238095Y-90890342D02*
X158238095Y-90795104D01*
X158238095Y-90795104D02*
X158190476Y-90699866D01*
X158190476Y-90699866D02*
X158142857Y-90652247D01*
X158142857Y-90652247D02*
X158047619Y-90604628D01*
X158047619Y-90604628D02*
X157857143Y-90557009D01*
X157857143Y-90557009D02*
X157761905Y-90509390D01*
X157761905Y-90509390D02*
X157714286Y-90461771D01*
X157714286Y-90461771D02*
X157666667Y-90366533D01*
X157666667Y-90366533D02*
X157666667Y-90271295D01*
X157666667Y-90271295D02*
X157714286Y-90176057D01*
X157714286Y-90176057D02*
X157761905Y-90128438D01*
X157761905Y-90128438D02*
X157857143Y-90080819D01*
X157857143Y-90080819D02*
X158095238Y-90080819D01*
X158095238Y-90080819D02*
X158238095Y-90128438D01*
X158571429Y-90080819D02*
X158809524Y-91080819D01*
X158809524Y-91080819D02*
X159000000Y-90366533D01*
X159000000Y-90366533D02*
X159190476Y-91080819D01*
X159190476Y-91080819D02*
X159428572Y-90080819D01*
X159761905Y-90176057D02*
X159809524Y-90128438D01*
X159809524Y-90128438D02*
X159904762Y-90080819D01*
X159904762Y-90080819D02*
X160142857Y-90080819D01*
X160142857Y-90080819D02*
X160238095Y-90128438D01*
X160238095Y-90128438D02*
X160285714Y-90176057D01*
X160285714Y-90176057D02*
X160333333Y-90271295D01*
X160333333Y-90271295D02*
X160333333Y-90366533D01*
X160333333Y-90366533D02*
X160285714Y-90509390D01*
X160285714Y-90509390D02*
X159714286Y-91080819D01*
X159714286Y-91080819D02*
X160333333Y-91080819D01*
%TO.C,D4*%
D12*
X137880000Y-117380000D02*
X137880000Y-121620000D01*
X137880000Y-121620000D02*
X140120000Y-121620000D01*
X139000000Y-116730000D02*
X139000000Y-117380000D01*
X139000000Y-122270000D02*
X139000000Y-121620000D01*
X140120000Y-117380000D02*
X137880000Y-117380000D01*
X140120000Y-117980000D02*
X137880000Y-117980000D01*
X140120000Y-118100000D02*
X137880000Y-118100000D01*
X140120000Y-118220000D02*
X137880000Y-118220000D01*
X140120000Y-121620000D02*
X140120000Y-117380000D01*
%TO.C,D1*%
X141055000Y-117380000D02*
X141055000Y-121620000D01*
X141055000Y-121620000D02*
X143295000Y-121620000D01*
X142175000Y-116730000D02*
X142175000Y-117380000D01*
X142175000Y-122270000D02*
X142175000Y-121620000D01*
X143295000Y-117380000D02*
X141055000Y-117380000D01*
X143295000Y-117980000D02*
X141055000Y-117980000D01*
X143295000Y-118100000D02*
X141055000Y-118100000D01*
X143295000Y-118220000D02*
X141055000Y-118220000D01*
X143295000Y-121620000D02*
X143295000Y-117380000D01*
%TO.C,J1*%
X150181000Y-76902000D02*
X151511000Y-76902000D01*
X150181000Y-78232000D02*
X150181000Y-76902000D01*
X150181000Y-79502000D02*
X150181000Y-87182000D01*
X150181000Y-79502000D02*
X152841000Y-79502000D01*
X150181000Y-87182000D02*
X152841000Y-87182000D01*
X152841000Y-79502000D02*
X152841000Y-87182000D01*
%TO.C,SW4*%
X172515000Y-91555000D02*
X186485000Y-91555000D01*
X172515000Y-105525000D02*
X172515000Y-91555000D01*
X186485000Y-91555000D02*
X186485000Y-105525000D01*
X186485000Y-105525000D02*
X172515000Y-105525000D01*
%TO.C,SW5*%
X172515000Y-112015000D02*
X186485000Y-112015000D01*
X172515000Y-125985000D02*
X172515000Y-112015000D01*
X186485000Y-112015000D02*
X186485000Y-125985000D01*
X186485000Y-125985000D02*
X172515000Y-125985000D01*
%TO.C,D6*%
X139350000Y-96250000D02*
X139350000Y-97400000D01*
X146650000Y-96250000D02*
X139350000Y-96250000D01*
X146650000Y-101750000D02*
X139350000Y-101750000D01*
%TO.C,D2*%
X134705000Y-117380000D02*
X134705000Y-121620000D01*
X134705000Y-121620000D02*
X136945000Y-121620000D01*
X135825000Y-116730000D02*
X135825000Y-117380000D01*
X135825000Y-122270000D02*
X135825000Y-121620000D01*
X136945000Y-117380000D02*
X134705000Y-117380000D01*
X136945000Y-117980000D02*
X134705000Y-117980000D01*
X136945000Y-118100000D02*
X134705000Y-118100000D01*
X136945000Y-118220000D02*
X134705000Y-118220000D01*
X136945000Y-121620000D02*
X136945000Y-117380000D01*
%TO.C,SW1*%
X129229000Y-79900000D02*
X129829000Y-79900000D01*
X129529000Y-80200000D02*
X129229000Y-79900000D01*
X129829000Y-79900000D02*
X129529000Y-80200000D01*
X130929000Y-78100000D02*
X130929000Y-89900000D01*
X135029000Y-78100000D02*
X130929000Y-78100000D01*
X135029000Y-89900000D02*
X130929000Y-89900000D01*
X136529000Y-84000000D02*
X137529000Y-84000000D01*
X137029000Y-83500000D02*
X137029000Y-84500000D01*
X139029000Y-78100000D02*
X143129000Y-78100000D01*
X143129000Y-78100000D02*
X143129000Y-80500000D01*
X143129000Y-82700000D02*
X143129000Y-85300000D01*
X143129000Y-87500000D02*
X143129000Y-89900000D01*
X143129000Y-89900000D02*
X139029000Y-89900000D01*
X140029000Y-84000000D02*
G75*
G02*
X134029000Y-84000000I-3000000J0D01*
G01*
X134029000Y-84000000D02*
G75*
G02*
X140029000Y-84000000I3000000J0D01*
G01*
%TO.C,D3*%
X144230000Y-117380000D02*
X144230000Y-121620000D01*
X144230000Y-121620000D02*
X146470000Y-121620000D01*
X145350000Y-116730000D02*
X145350000Y-117380000D01*
X145350000Y-122270000D02*
X145350000Y-121620000D01*
X146470000Y-117380000D02*
X144230000Y-117380000D01*
X146470000Y-117980000D02*
X144230000Y-117980000D01*
X146470000Y-118100000D02*
X144230000Y-118100000D01*
X146470000Y-118220000D02*
X144230000Y-118220000D01*
X146470000Y-121620000D02*
X146470000Y-117380000D01*
%TO.C,D9*%
X184427000Y-79795000D02*
X184427000Y-84035000D01*
X184427000Y-84035000D02*
X186667000Y-84035000D01*
X185547000Y-79145000D02*
X185547000Y-79795000D01*
X185547000Y-84685000D02*
X185547000Y-84035000D01*
X186667000Y-79795000D02*
X184427000Y-79795000D01*
X186667000Y-80395000D02*
X184427000Y-80395000D01*
X186667000Y-80515000D02*
X184427000Y-80515000D01*
X186667000Y-80635000D02*
X184427000Y-80635000D01*
X186667000Y-84035000D02*
X186667000Y-79795000D01*
%TO.C,SW3*%
X152015000Y-112015000D02*
X165985000Y-112015000D01*
X152015000Y-125985000D02*
X152015000Y-112015000D01*
X165985000Y-112015000D02*
X165985000Y-125985000D01*
X165985000Y-125985000D02*
X152015000Y-125985000D01*
%TO.C,SW2*%
X152015000Y-91515000D02*
X165985000Y-91515000D01*
X152015000Y-105485000D02*
X152015000Y-91515000D01*
X165985000Y-91515000D02*
X165985000Y-105485000D01*
X165985000Y-105485000D02*
X152015000Y-105485000D01*
%TD*%
%LPC*%
D13*
%TO.C,D4*%
X139000000Y-115690000D03*
D14*
X139000000Y-123310000D03*
%TD*%
D13*
%TO.C,D1*%
X142175000Y-115690000D03*
D14*
X142175000Y-123310000D03*
%TD*%
D15*
%TO.C,J1*%
X151511000Y-78232000D03*
D16*
X151511000Y-80772000D03*
X151511000Y-83312000D03*
X151511000Y-85852000D03*
%TD*%
D17*
%TO.C,SW4*%
X174420000Y-98540000D03*
D18*
X179500000Y-98540000D03*
D17*
X184580000Y-98540000D03*
D19*
X182040000Y-93460000D03*
X175690000Y-96000000D03*
%TD*%
D17*
%TO.C,SW5*%
X174420000Y-119000000D03*
D18*
X179500000Y-119000000D03*
D17*
X184580000Y-119000000D03*
D19*
X182040000Y-113920000D03*
X175690000Y-116460000D03*
%TD*%
D20*
%TO.C,D6*%
X145450000Y-100650000D03*
X145450000Y-97350000D03*
X140550000Y-97350000D03*
X140550000Y-100650000D03*
%TD*%
D13*
%TO.C,D2*%
X135825000Y-115690000D03*
D14*
X135825000Y-123310000D03*
%TD*%
D21*
%TO.C,SW1*%
X129529000Y-81500000D03*
D22*
X129529000Y-86500000D03*
X129529000Y-84000000D03*
D23*
X137029000Y-78400000D03*
X137029000Y-89600000D03*
D22*
X144029000Y-86500000D03*
X144029000Y-81500000D03*
%TD*%
D24*
%TO.C,REF\u002A\u002A*%
X128750000Y-108000000D03*
%TD*%
D13*
%TO.C,D3*%
X145350000Y-115690000D03*
D14*
X145350000Y-123310000D03*
%TD*%
D13*
%TO.C,D9*%
X185547000Y-78105000D03*
D14*
X185547000Y-85725000D03*
%TD*%
D17*
%TO.C,SW3*%
X153920000Y-119000000D03*
D18*
X159000000Y-119000000D03*
D17*
X164080000Y-119000000D03*
D19*
X161540000Y-113920000D03*
X155190000Y-116460000D03*
%TD*%
D17*
%TO.C,SW2*%
X153920000Y-98500000D03*
D18*
X159000000Y-98500000D03*
D17*
X164080000Y-98500000D03*
D19*
X161540000Y-93420000D03*
X155190000Y-95960000D03*
%TD*%
D25*
%TO.C,U1*%
X176485500Y-76092015D03*
D26*
X176485500Y-78632015D03*
X176485500Y-81172015D03*
X176485500Y-83712015D03*
X176485500Y-86252015D03*
X176485500Y-88792015D03*
X176485500Y-91332015D03*
X159235500Y-91332015D03*
X159235500Y-88792015D03*
X159235500Y-86252015D03*
D27*
X159235500Y-83712015D03*
X159235500Y-81172015D03*
X159235500Y-78632015D03*
X159235500Y-76092015D03*
%TD*%
%LPD*%
M02*
