%TF.GenerationSoftware,KiCad,Pcbnew,10.0.4*%
%TF.CreationDate,2026-07-07T14:04:39+02:00*%
%TF.ProjectId,voltstrip_pcb,766f6c74-7374-4726-9970-5f7063622e6b,rev?*%
%TF.SameCoordinates,Original*%
%TF.FileFunction,Soldermask,Bot*%
%TF.FilePolarity,Negative*%
%FSLAX46Y46*%
G04 Gerber Fmt 4.6, Leading zero omitted, Abs format (unit mm)*
G04 Created by KiCad (PCBNEW 10.0.4) date 2026-07-07 14:04:39*
%MOMM*%
%LPD*%
G01*
G04 APERTURE LIST*
%ADD10R,1.600000X1.600000*%
%ADD11O,1.600000X1.600000*%
%ADD12R,1.700000X1.700000*%
%ADD13O,1.700000X1.700000*%
%ADD14C,1.700000*%
%ADD15C,4.000000*%
%ADD16C,2.200000*%
%ADD17R,2.000000X2.000000*%
%ADD18C,2.000000*%
%ADD19R,3.200000X2.000000*%
%ADD20C,3.200000*%
%ADD21R,3.500000X1.700000*%
%ADD22O,3.600000X1.700000*%
%ADD23O,3.700000X1.700000*%
%ADD24R,1.500000X0.900000*%
G04 APERTURE END LIST*
D10*
%TO.C,D4*%
X139000000Y-115690000D03*
D11*
X139000000Y-123310000D03*
%TD*%
D10*
%TO.C,D1*%
X142175000Y-115690000D03*
D11*
X142175000Y-123310000D03*
%TD*%
D12*
%TO.C,J1*%
X151511000Y-78232000D03*
D13*
X151511000Y-80772000D03*
X151511000Y-83312000D03*
X151511000Y-85852000D03*
%TD*%
D14*
%TO.C,SW4*%
X174420000Y-98540000D03*
D15*
X179500000Y-98540000D03*
D14*
X184580000Y-98540000D03*
D16*
X182040000Y-93460000D03*
X175690000Y-96000000D03*
%TD*%
D14*
%TO.C,SW5*%
X174420000Y-119000000D03*
D15*
X179500000Y-119000000D03*
D14*
X184580000Y-119000000D03*
D16*
X182040000Y-113920000D03*
X175690000Y-116460000D03*
%TD*%
D10*
%TO.C,D2*%
X135825000Y-115690000D03*
D11*
X135825000Y-123310000D03*
%TD*%
D17*
%TO.C,SW1*%
X129529000Y-81500000D03*
D18*
X129529000Y-86500000D03*
X129529000Y-84000000D03*
D19*
X137029000Y-78400000D03*
X137029000Y-89600000D03*
D18*
X144029000Y-86500000D03*
X144029000Y-81500000D03*
%TD*%
D20*
%TO.C,REF\u002A\u002A*%
X128750000Y-108000000D03*
%TD*%
D10*
%TO.C,D3*%
X145350000Y-115690000D03*
D11*
X145350000Y-123310000D03*
%TD*%
D10*
%TO.C,D9*%
X185547000Y-78105000D03*
D11*
X185547000Y-85725000D03*
%TD*%
D14*
%TO.C,SW3*%
X153920000Y-119000000D03*
D15*
X159000000Y-119000000D03*
D14*
X164080000Y-119000000D03*
D16*
X161540000Y-113920000D03*
X155190000Y-116460000D03*
%TD*%
D14*
%TO.C,SW2*%
X153920000Y-98500000D03*
D15*
X159000000Y-98500000D03*
D14*
X164080000Y-98500000D03*
D16*
X161540000Y-93420000D03*
X155190000Y-95960000D03*
%TD*%
D21*
%TO.C,U1*%
X176485500Y-76092015D03*
D22*
X176485500Y-78632015D03*
X176485500Y-81172015D03*
X176485500Y-83712015D03*
X176485500Y-86252015D03*
X176485500Y-88792015D03*
X176485500Y-91332015D03*
X159235500Y-91332015D03*
X159235500Y-88792015D03*
X159235500Y-86252015D03*
D23*
X159235500Y-83712015D03*
X159235500Y-81172015D03*
X159235500Y-78632015D03*
X159235500Y-76092015D03*
%TD*%
D24*
%TO.C,D5*%
X132450000Y-97850000D03*
X132450000Y-101150000D03*
X127550000Y-101150000D03*
X127550000Y-97850000D03*
%TD*%
M02*
